PathFileType	4	(x/y/z)	S06_M20_T25
DataRate	CameraRate	NumFrames	NumMarkers	Units	OrigDataRate	OrigDataStartFrame	OrigNumFrames
240	240	9	51	mm	240	370	492
Frame#	Time	Sternum			R.Acromium			L.Acromium			Top.Head			R.ASIS			L.ASIS			R.PSIS			L.PSIS			R.Great.Tro			L.Great.Tro			R.Iliac.Crest			L.Iliac.Crest			V.Sacral			R.Thigh.Upper.Post			R.Thigh.Lower.Ant			R.Thigh.Lower.Post			R.Thigh.Upper.Ant			R.Knee.Lat			R.Knee.Med			R.Shank.Upper.Post			R.Shank.Lower.Ant			R.Shank.Lower.Post			R.Shank.Upper.Ant			R.Ankle.Lat			R.Ankle.Med			R.Heel.Upper			R.Heel.Med			R.Heel.Lat			R.Toe.Lat			R.Toe.Med			R.Toe.Tip			L.Thigh.Upper.Post			L.Thigh.Lower.Ant			L.Thigh.Lower.Post			L.Thigh.Upper.Ant			L.Knee.Lat			L.Knee.Med			L.Shank.Upper.Post			L.Shank.Lower.Ant			L.Shank.Lower.Post			L.Shank.Upper.Ant			L.Ankle.Lat			L.Ankle.Med			L.Heel.Upper			L.Heel.Med			L.Heel.Lat			L.Toe.Lat			L.Toe.Med			L.Toe.Tip			Cervical.Spine			Back			
		X1	Y1	Z1	X2	Y2	Z2	X3	Y3	Z3	X4	Y4	Z4	X5	Y5	Z5	X6	Y6	Z6	X7	Y7	Z7	X8	Y8	Z8	X9	Y9	Z9	X10	Y10	Z10	X11	Y11	Z11	X12	Y12	Z12	X13	Y13	Z13	X14	Y14	Z14	X15	Y15	Z15	X16	Y16	Z16	X17	Y17	Z17	X18	Y18	Z18	X19	Y19	Z19	X20	Y20	Z20	X21	Y21	Z21	X22	Y22	Z22	X23	Y23	Z23	X24	Y24	Z24	X25	Y25	Z25	X26	Y26	Z26	X27	Y27	Z27	X28	Y28	Z28	X29	Y29	Z29	X30	Y30	Z30	X31	Y31	Z31	X32	Y32	Z32	X33	Y33	Z33	X34	Y34	Z34	X35	Y35	Z35	X36	Y36	Z36	X37	Y37	Z37	X38	Y38	Z38	X39	Y39	Z39	X40	Y40	Z40	X41	Y41	Z41	X42	Y42	Z42	X43	Y43	Z43	X44	Y44	Z44	X45	Y45	Z45	X46	Y46	Z46	X47	Y47	Z47	X48	Y48	Z48	X49	Y49	Z49	X50	Y50	Z50	X51	Y51	Z51	

370	1.5375	436.42	1297.3	307.31	295.09	1500.8	466.67	293.09	1493.7	115.42	364.24	1810.6	285.31	396.82	1056.9	431.71	424.26	1060.2	180.07	206.94	1066.5	323.24	212.87	1070.2	242.55	338.77	977.69	475.85	336.17	981.63	119.07	307.5	1127.4	456.77	350.08	1126.8	137.48	197.97	1034	284.99	366.66	730.34	488.39	432.83	654.75	469.15	365.47	641.16	477.54	437.27	745.36	474.66	381.43	535.54	474.07	402.31	526.71	346.78	197.83	405.26	474.52	193.64	316.89	453.89	139.92	355.14	460.95	250.56	367.01	468.12	65.725	242.72	436.91	86.866	233.63	353.45	-2.6313	258.52	383.59	-17.266	231.66	351.28	-23.827	231.9	416.08	81.54	94.011	464.99	115.55	82.506	350.29	166.5	44.181	399.31	423.96	726.47	144.22	483.89	656.92	205.15	416.52	638.61	168.35	484.64	748.29	177.52	411.31	544.4	190.55	446.72	559.25	306.5	362.49	317.73	218.42	425.12	254.64	221.51	356.35	247.63	240.37	427.51	323.94	204.9	400.58	107.87	246.93	414.39	131.84	330.85	322.36	74.718	299.25	328.33	48.369	332.05	327.31	48.919	269.8	505.69	42.802	226.78	528.39	47.424	345.23	599.85	56.274	288.43	240.67	1547.7	290.57	195.86	1269.7	291.87
371	1.5417	441.09	1297.8	307.38	299.77	1501.2	466.73	297.98	1494.3	115.48	369.33	1811	285.67	401.66	1057.5	431.58	428.82	1060.7	179.96	211.61	1066.9	323.32	217.49	1070.7	242.67	343.95	978.23	475.84	340.47	982.16	119.01	312.23	1127.9	456.77	354.62	1127.4	137.49	202.57	1034.5	285.11	374.37	731.11	488.5	441.1	656.03	468.96	373.85	641.94	477.59	444.8	746.68	474.44	390.8	536.51	474.02	411.2	527.77	346.67	208.34	404.74	474.94	204.97	316.27	454.72	150.91	354.01	461.63	261.41	366.99	468.69	77.741	240.81	438	98.928	231.53	354.64	8.5508	254.84	384.46	-5.52	227.26	352.49	-12.009	228.09	417.3	96.637	93.17	467.65	130.72	81.056	353.06	182.66	44.542	402.44	427.23	726.78	144.28	486.87	656.86	205.15	419.4	638.92	168.32	488.05	748.21	177.57	413.49	544.59	190.54	449	559.23	306.52	363.63	318.06	218.45	425.99	254.72	221.49	357.21	247.99	240.42	428.65	324	204.88	400.85	108.03	247	414.76	131.97	330.89	322.46	74.871	299.3	328.38	48.492	332.07	327.39	49.111	269.82	505.77	42.823	226.81	528.5	47.157	345.31	599.98	55.857	288.53	245.5	1548.2	290.61	200.54	1270.3	291.76
372	1.5458	445.74	1298.3	307.45	304.44	1501.6	466.79	302.84	1494.9	115.55	374.4	1811.5	286.04	406.48	1058.1	431.45	433.35	1061.2	179.86	216.26	1067.3	323.43	222.09	1071.2	242.8	349.11	978.77	475.85	344.74	982.68	118.95	316.96	1128.4	456.78	359.13	1127.9	137.51	207.15	1034.9	285.25	382.03	731.9	488.58	449.33	657.33	468.75	382.18	642.73	477.61	452.27	748.02	474.22	400.14	537.5	473.93	420.08	528.86	346.52	218.86	404.19	475.33	216.37	315.6	455.54	161.95	352.82	462.27	272.28	366.95	469.23	89.887	238.79	439.09	111.12	229.34	355.82	19.927	251.05	385.34	6.4316	222.77	353.7	-0.00033305	224.2	418.52	111.8	92.283	470.23	145.97	79.581	355.78	198.86	44.877	405.5	430.44	727.08	144.35	489.77	656.78	205.15	422.21	639.23	168.29	491.42	748.13	177.62	415.6	544.79	190.53	451.19	559.21	306.56	364.72	318.39	218.49	426.81	254.8	221.48	358.04	248.35	240.47	429.75	324.07	204.85	401.11	108.19	247.06	415.11	132.11	330.93	322.55	75.024	299.34	328.43	48.61	332.09	327.47	49.297	269.84	505.85	42.843	226.83	528.6	46.917	345.39	600.11	55.475	288.63	250.31	1548.7	290.65	205.2	1270.8	291.67
373	1.55	450.39	1298.7	307.53	309.12	1502	466.86	307.68	1495.5	115.62	379.46	1811.9	286.4	411.29	1058.6	431.32	437.86	1061.7	179.75	220.89	1067.8	323.56	226.67	1071.7	242.95	354.24	979.29	475.86	348.98	983.21	118.91	321.68	1128.9	456.8	363.64	1128.5	137.53	211.71	1035.4	285.4	389.64	732.71	488.66	457.5	658.64	468.51	390.45	643.55	477.6	459.68	749.37	473.98	409.43	538.52	473.81	428.93	529.98	346.34	229.41	403.59	475.69	227.83	314.9	456.34	173.04	351.57	462.88	283.19	366.91	469.77	102.16	236.68	440.17	123.44	227.06	356.96	31.491	247.16	386.21	18.584	218.21	354.93	12.194	220.22	419.74	127.02	91.351	472.75	161.3	78.089	358.43	215.08	45.187	408.46	433.59	727.38	144.43	492.59	656.7	205.16	424.96	639.54	168.27	494.73	748.04	177.67	417.65	544.98	190.53	453.31	559.19	306.6	365.77	318.72	218.53	427.6	254.89	221.46	358.84	248.7	240.53	430.79	324.14	204.82	401.35	108.35	247.12	415.44	132.26	330.97	322.65	75.175	299.39	328.47	48.723	332.11	327.54	49.479	269.87	505.92	42.862	226.85	528.7	46.7	345.45	600.22	55.125	288.71	255.11	1549.2	290.7	209.85	1271.3	291.6
374	1.5542	455.03	1299.2	307.6	313.79	1502.4	466.94	312.5	1496.2	115.71	384.5	1812.3	286.76	416.07	1059.2	431.2	442.35	1062.2	179.65	225.51	1068.2	323.7	231.23	1072.1	243.11	359.35	979.81	475.87	353.2	983.74	118.86	326.38	1129.3	456.82	368.13	1129	137.56	216.26	1035.9	285.56	397.2	733.53	488.72	465.63	659.96	468.25	398.67	644.38	477.57	467.03	750.73	473.74	418.68	539.56	473.65	437.75	531.13	346.13	239.97	402.94	476.02	239.36	314.17	457.13	184.18	350.25	463.47	294.13	366.85	470.28	114.56	234.48	441.24	135.89	224.7	358.08	43.241	243.18	387.09	30.933	213.58	356.16	24.571	216.16	420.95	142.31	90.375	475.19	176.71	76.588	361	231.33	45.477	411.33	436.69	727.68	144.51	495.35	656.61	205.18	427.63	639.86	168.26	497.99	747.94	177.73	419.63	545.18	190.55	455.35	559.18	306.65	366.77	319.05	218.57	428.35	254.99	221.44	359.6	249.04	240.58	431.79	324.22	204.8	401.58	108.51	247.17	415.76	132.4	331.01	322.74	75.324	299.43	328.51	48.83	332.13	327.61	49.657	269.89	505.98	42.88	226.87	528.79	46.504	345.5	600.32	54.804	288.79	259.9	1549.7	290.76	214.49	1271.9	291.55
375	1.5583	459.65	1299.7	307.68	318.46	1502.8	467.02	317.31	1496.8	115.8	389.53	1812.7	287.12	420.84	1059.7	431.09	446.82	1062.7	179.55	230.11	1068.7	323.86	235.77	1072.6	243.27	364.42	980.32	475.89	357.4	984.26	118.83	331.06	1129.8	456.86	372.61	1129.6	137.6	220.79	1036.3	285.72	404.7	734.36	488.76	473.69	661.29	467.96	406.83	645.22	477.51	474.32	752.1	473.49	427.87	540.62	473.46	446.55	532.31	345.89	250.55	402.26	476.32	250.94	313.4	457.9	195.37	348.88	464.02	305.09	366.78	470.78	127.08	232.19	442.3	148.46	222.27	359.17	55.17	239.11	387.96	43.472	208.9	357.39	37.127	212.02	422.17	157.67	89.355	477.55	192.2	75.085	363.5	247.61	45.748	414.1	439.73	727.96	144.6	498.03	656.5	205.21	430.24	640.17	168.25	501.19	747.83	177.79	421.55	545.38	190.57	457.32	559.18	306.71	367.74	319.36	218.61	429.07	255.09	221.42	360.32	249.38	240.64	432.74	324.31	204.77	401.79	108.67	247.23	416.07	132.55	331.06	322.82	75.472	299.48	328.55	48.932	332.15	327.68	49.83	269.92	506.05	42.899	226.89	528.87	46.327	345.55	600.41	54.51	288.86	264.68	1550.2	290.83	219.12	1272.4	291.52
376	1.5625	464.27	1300.1	307.76	323.13	1503.2	467.1	322.1	1497.3	115.9	394.54	1813.2	287.47	425.58	1060.2	430.99	451.26	1063.2	179.46	234.7	1069.1	324.02	240.3	1073.1	243.45	369.48	980.81	475.91	361.58	984.78	118.8	335.74	1130.2	456.9	377.08	1130.1	137.64	225.31	1036.8	285.89	412.15	735.2	488.79	481.7	662.63	467.64	414.93	646.09	477.43	481.54	753.48	473.22	437.01	541.7	473.24	455.31	533.51	345.62	261.15	401.53	476.6	262.57	312.61	458.65	206.6	347.45	464.55	316.07	366.7	471.27	139.72	229.82	443.35	161.15	219.78	360.24	67.276	234.97	388.85	56.198	204.18	358.63	49.858	207.82	423.38	173.09	88.294	479.83	207.77	73.586	365.91	263.93	46.005	416.75	442.72	728.24	144.71	500.64	656.38	205.24	432.78	640.47	168.26	504.34	747.7	177.85	423.41	545.57	190.61	459.22	559.18	306.77	368.66	319.68	218.67	429.75	255.19	221.41	361.02	249.72	240.7	433.65	324.4	204.75	401.98	108.83	247.28	416.35	132.69	331.1	322.9	75.617	299.52	328.59	49.028	332.17	327.75	49.998	269.95	506.1	42.917	226.91	528.95	46.165	345.59	600.5	54.239	288.92	269.45	1550.7	290.91	223.74	1272.9	291.49
377	1.5667	468.88	1300.6	307.84	327.79	1503.5	467.2	326.88	1497.9	116.01	399.54	1813.5	287.82	430.31	1060.7	430.9	455.69	1063.6	179.38	239.28	1069.5	324.19	244.81	1073.6	243.62	374.5	981.29	475.94	365.75	985.29	118.79	340.39	1130.6	456.94	381.54	1130.6	137.69	229.82	1037.3	286.06	419.54	736.05	488.81	489.64	663.99	467.3	422.97	646.96	477.33	488.69	754.87	472.94	446.1	542.79	473	464.02	534.74	345.32	271.75	400.77	476.86	274.27	311.78	459.39	217.88	345.96	465.06	327.08	366.62	471.73	152.48	227.39	444.38	173.95	217.24	361.28	79.554	230.77	389.74	69.103	199.42	359.87	62.76	203.57	424.6	188.59	87.193	482.02	223.42	72.099	368.22	280.28	46.249	419.29	445.66	728.5	144.82	503.18	656.25	205.28	435.25	640.78	168.29	507.44	747.55	177.92	425.2	545.77	190.67	461.05	559.2	306.85	369.54	319.98	218.73	430.39	255.3	221.4	361.68	250.05	240.78	434.51	324.49	204.74	402.17	108.99	247.34	416.63	132.82	331.15	322.98	75.758	299.57	328.62	49.116	332.19	327.81	50.162	269.99	506.16	42.936	226.93	529.03	46.017	345.63	600.58	53.987	288.98	274.21	1551.1	291	228.35	1273.4	291.49
378	1.5708	473.49	1301	307.93	332.45	1503.9	467.3	331.65	1498.5	116.14	404.53	1813.9	288.17	435.01	1061.2	430.83	460.11	1064	179.3	243.84	1070	324.37	249.3	1074.1	243.8	379.48	981.77	475.97	369.9	985.79	118.78	345.04	1131	456.99	385.99	1131.1	137.75	234.32	1037.7	286.23	426.87	736.91	488.81	497.5	665.36	466.93	430.95	647.85	477.21	495.77	756.27	472.65	455.12	543.91	472.73	472.68	535.99	345	282.38	399.97	477.09	286.01	310.94	460.1	229.2	344.42	465.54	338.11	366.53	472.18	165.35	224.88	445.39	186.86	214.66	362.3	92.002	226.5	390.63	82.184	194.63	361.12	75.832	199.25	425.8	204.16	86.054	484.11	239.14	70.629	370.42	296.66	46.485	421.7	448.55	728.75	144.96	505.66	656.1	205.32	437.66	641.08	168.32	510.49	747.39	177.99	426.93	545.97	190.74	462.8	559.22	306.93	370.39	320.28	218.8	431.01	255.41	221.4	362.32	250.37	240.85	435.34	324.58	204.73	402.34	109.15	247.4	416.89	132.96	331.2	323.06	75.896	299.62	328.65	49.198	332.22	327.87	50.321	270.02	506.2	42.956	226.95	529.1	45.879	345.67	600.66	53.753	289.03	278.96	1551.6	291.09	232.95	1273.9	291.49
